<svg xmlns="http://www.w3.org/2000/svg" width="512.000000pt" height="512.000000pt" viewBox="0 0 512.000000 512.000000" preserveAspectRatio="xMidYMid meet"><g transform="translate(0.000000,512.000000) scale(0.100000,-0.100000)" fill="#000000" stroke="none"><path d="M4125 4998 c-114 -42 -185 -141 -185 -259 l0 -49 -63 0 c-56 0 -76 6 -164 49 -285 139 -565 222 -852 252 -160 16 -472 6 -631 -20 -337 -57 -661 -174 -983 -354 -148 -82 -198 -129 -221 -208 -20 -66 -20 -92 0 -160 32 -107 148 -189 266 -189 21 0 110 24 198 54 186 64 288 87 499 116 84 11 156 20 160 20 3 0 7 -18 9 -40 5 -69 40 -147 90 -198 41 -41 78 -61 289 -155 288 -128 341 -149 470 -181 170 -43 304 -59 498 -59 160 -1 337 16 416 39 13 4 17 -5 21 -43 9 -94 67 -176 156 -220 l57 -28 320 0 320 0 57 28 c65 32 101 70 135 144 l24 51 -3 614 c-3 607 -3 613 -25 653 -25 47 -84 105 -133 131 -32 17 -65 19 -365 21 -221 1 -340 -2 -360 -9z m664 -156 c19 -10 43 -34 53 -53 17 -31 18 -71 18 -597 0 -621 1 -614 -62 -652 -31 -19 -50 -20 -323 -20 -318 0 -323 1 -363 60 l-23 34 2 577 c1 551 2 578 20 608 34 57 55 60 364 61 253 0 284 -2 314 -18z m-1964 -2 c275 -26 528 -100 809 -235 117 -56 183 -75 262 -75 l44 0 0 -354 c0 -195 -4 -357 -8 -360 -4 -2 -50 -13 -102 -23 -74 -14 -145 -18 -325 -18 -254 0 -361 15 -551 76 -105 33 -566 239 -594 264 -26 24 -50 78 -50 113 0 41 36 117 67 141 34 28 98 44 139 36 19 -3 105 -38 191 -77 163 -73 201 -82 234 -52 25 22 26 85 1 107 -24 22 -293 144 -361 163 -116 34 -273 -9 -342 -96 -30 -37 -33 -38 -127 -49 -347 -42 -440 -62 -676 -142 l-149 -51 -42 17 c-52 19 -76 53 -77 104 -1 53 16 74 101 124 241 143 554 271 811 331 250 59 508 78 745 56z"></path><path d="M4418 4756 c-98 -26 -159 -107 -159 -210 0 -230 307 -299 413 -92 31 61 23 161 -19 218 -53 74 -148 107 -235 84z m106 -168 c22 -31 20 -64 -4 -88 -58 -58 -149 31 -93 92 23 26 78 24 97 -4z"></path><path d="M2530 3447 c-19 -9 -56 -75 -152 -267 -70 -140 -129 -259 -131 -264 -1 -5 -131 -26 -288 -47 -156 -21 -294 -43 -307 -49 -27 -12 -44 -52 -36 -85 3 -14 97 -112 214 -224 l207 -200 -49 -287 c-55 -319 -54 -333 5 -354 30 -10 47 -3 299 125 l268 136 267 -136 c253 -128 270 -135 300 -125 59 21 60 35 5 354 l-49 286 207 200 c118 113 211 211 214 224 8 33 -9 74 -36 86 -13 6 -150 28 -306 49 -155 21 -284 40 -286 42 -2 2 -60 119 -128 259 -68 140 -131 260 -139 266 -25 20 -53 24 -79 11z m138 -462 c72 -145 109 -208 125 -215 12 -5 121 -23 241 -40 120 -16 221 -31 223 -34 2 -2 -66 -70 -152 -152 -86 -82 -163 -161 -170 -175 -13 -23 -10 -53 25 -255 22 -126 40 -231 40 -232 0 -2 -92 44 -205 102 -113 58 -218 106 -233 106 -15 0 -120 -47 -234 -106 -115 -58 -208 -104 -208 -102 0 2 18 106 40 232 34 202 38 232 26 255 -8 14 -84 93 -170 175 -86 82 -155 150 -153 152 2 2 102 17 223 34 120 17 229 35 241 40 16 7 53 70 125 215 57 113 105 205 108 205 3 0 51 -92 108 -205z"></path><path d="M331 1740 c-93 -20 -169 -88 -206 -183 -14 -37 -15 -114 -13 -647 3 -599 3 -605 25 -645 25 -47 84 -105 133 -131 32 -17 66 -19 358 -22 358 -3 383 0 455 59 59 48 89 109 95 190 l5 69 62 0 c53 0 75 -6 156 -46 289 -142 569 -225 859 -255 143 -15 460 -7 605 16 241 37 544 130 782 241 169 78 351 185 393 230 39 42 70 120 70 174 0 106 -88 224 -189 254 -84 25 -120 20 -291 -38 -186 -64 -288 -87 -499 -116 -84 -11 -156 -20 -160 -20 -3 0 -7 18 -9 40 -5 69 -40 147 -90 198 -41 41 -78 61 -289 155 -289 128 -341 149 -473 182 -164 42 -299 57 -495 58 -161 1 -335 -15 -416 -39 -13 -3 -17 5 -21 39 -10 90 -69 172 -156 214 l-57 28 -295 2 c-162 1 -315 -2 -339 -7z m636 -170 c66 -40 64 -19 61 -659 -3 -563 -4 -580 -23 -601 -41 -47 -67 -50 -362 -50 -312 0 -329 3 -365 71 -17 31 -18 71 -18 597 0 621 -2 603 63 642 30 19 52 20 322 20 270 0 292 -1 322 -20z m998 -250 c61 -12 151 -35 200 -51 90 -28 532 -221 580 -253 31 -20 65 -86 65 -124 0 -41 -36 -117 -67 -141 -34 -28 -98 -44 -139 -36 -19 3 -105 38 -191 77 -163 73 -201 82 -234 52 -25 -22 -26 -85 -1 -107 24 -22 318 -153 376 -168 108 -27 245 14 321 95 l41 44 204 26 c242 31 373 61 569 128 l143 50 43 -17 c53 -20 75 -51 75 -108 0 -53 -16 -72 -107 -125 -588 -342 -1207 -463 -1781 -347 -198 41 -364 98 -574 199 -117 57 -184 76 -264 76 l-44 0 2 357 3 357 30 7 c175 45 551 49 750 9z"></path><path d="M560 774 c-46 -20 -87 -60 -112 -108 -30 -58 -23 -159 15 -212 90 -130 274 -131 363 -3 39 56 46 156 16 215 -54 105 -179 153 -282 108z m130 -154 c41 -41 13 -110 -45 -110 -58 0 -86 69 -45 110 11 11 31 20 45 20 14 0 34 -9 45 -20z"></path></g></svg>