<svg xmlns="http://www.w3.org/2000/svg" width="512.000000pt" height="512.000000pt" viewBox="0 0 512.000000 512.000000" preserveAspectRatio="xMidYMid meet"><g transform="translate(0.000000,512.000000) scale(0.100000,-0.100000)" fill="#000000" stroke="none"><path d="M2511 5106 c-49 -27 -50 -37 -51 -414 0 -383 2 -396 55 -420 51 -23 107 -7 131 39 19 37 21 713 2 754 -22 48 -88 68 -137 41z"></path><path d="M618 4344 c-38 -20 -61 -67 -53 -107 10 -46 456 -492 502 -502 66 -13 132 52 117 118 -5 24 -62 88 -228 256 -200 202 -259 252 -298 251 -7 -1 -25 -7 -40 -16z"></path><path d="M4414 4344 c-17 -8 -130 -115 -251 -237 -237 -239 -249 -256 -218 -316 23 -45 69 -66 114 -52 52 15 486 452 495 498 9 41 -14 87 -54 108 -36 19 -47 19 -86 -1z"></path><path d="M2341 3949 c-424 -45 -907 -248 -1299 -548 -213 -162 -457 -398 -623 -601 -116 -142 -159 -207 -159 -240 0 -76 332 -461 595 -688 228 -197 434 -336 680 -457 500 -247 995 -313 1503 -199 369 83 773 288 1127 571 276 221 695 687 695 773 0 86 -419 552 -695 773 -579 464 -1217 679 -1824 616z m414 -199 c574 -64 1179 -400 1649 -915 143 -156 228 -263 224 -279 -6 -28 -185 -234 -323 -371 -257 -256 -520 -448 -810 -591 -634 -312 -1236 -312 -1870 1 -296 146 -550 330 -810 590 -157 156 -320 347 -320 375 0 28 163 219 320 375 260 260 516 446 810 590 385 190 766 265 1130 225z"></path><path d="M2399 3445 c-108 -20 -186 -52 -206 -82 -27 -41 -20 -93 18 -126 36 -33 61 -33 169 -2 312 89 659 -69 804 -367 101 -206 101 -410 0 -616 -96 -196 -279 -337 -491 -378 -156 -30 -293 -10 -443 63 -79 38 -109 60 -181 132 -71 71 -94 102 -133 181 -63 128 -80 217 -71 375 6 121 6 121 -20 147 -52 53 -133 38 -162 -29 -27 -60 -23 -302 6 -408 88 -324 340 -570 668 -652 103 -26 323 -23 428 6 317 85 560 329 646 646 18 65 22 107 22 225 0 118 -4 160 -22 225 -86 317 -333 564 -646 645 -105 28 -283 35 -386 15z"></path><path d="M1911 3146 c-87 -48 -50 -186 49 -186 51 0 100 49 100 99 0 75 -83 124 -149 87z"></path><path d="M2466 2950 c-63 -16 -153 -70 -197 -117 -22 -24 -55 -74 -72 -111 -29 -61 -32 -76 -32 -163 0 -90 2 -99 37 -171 45 -91 103 -147 196 -191 61 -29 76 -32 162 -32 86 0 101 3 162 32 93 44 151 100 196 191 35 72 37 81 37 172 0 91 -2 100 -37 172 -68 136 -188 217 -336 224 -42 2 -94 -1 -116 -6z m204 -224 c59 -39 85 -89 85 -166 0 -78 -26 -127 -88 -168 -56 -37 -153 -39 -210 -3 -76 47 -111 140 -88 229 14 51 75 117 123 131 53 16 135 6 178 -23z"></path><path d="M1044 1274 c-17 -8 -130 -115 -251 -237 -237 -239 -249 -256 -218 -316 23 -45 69 -66 114 -52 52 15 486 452 495 498 9 41 -14 87 -54 108 -36 19 -47 19 -86 -1z"></path><path d="M3988 1274 c-38 -20 -61 -67 -53 -107 10 -46 456 -492 502 -502 66 -13 132 52 117 118 -5 24 -62 88 -228 256 -200 202 -259 252 -298 251 -7 -1 -25 -7 -40 -16z"></path><path d="M2511 846 c-49 -27 -50 -37 -51 -414 0 -383 2 -396 55 -420 51 -23 107 -7 131 39 19 37 21 713 2 754 -22 48 -88 68 -137 41z"></path></g></svg>